<svg width="12" height="12" viewBox="0 0 12 12" fill="none" xmlns="http://www.w3.org/2000/svg">
<path fill-rule="evenodd" clip-rule="evenodd" d="M10.181 1.55783L1.78631 4.59317L4.58297 6.21183L7.04897 3.74517C7.17407 3.62016 7.3437 3.54997 7.52054 3.55003C7.69739 3.55009 7.86697 3.62041 7.99197 3.7455C8.11698 3.87059 8.18717 4.04022 8.18711 4.21707C8.18705 4.39392 8.11673 4.56349 7.99164 4.6885L5.52497 7.15517L7.14497 9.95117L10.181 1.55783ZM10.3963 0.0618336C11.193 -0.226833 11.965 0.545167 11.6763 1.34183L8.15497 11.0785C7.86564 11.8772 6.77497 11.9745 6.34897 11.2392L4.20431 7.53383L0.498975 5.38917C-0.236358 4.96317 -0.139025 3.8725 0.659642 3.58317L10.3963 0.0618336Z" fill="white"/>
</svg>
