<svg width="20" height="20" viewBox="0 0 20 20" fill="none" xmlns="http://www.w3.org/2000/svg">
<path d="M10 0C10.5021 0 10.9092 0.407103 10.9092 0.90918V6.83301L15.6289 2.0127C15.9802 1.65396 16.5563 1.64873 16.915 2C17.2735 2.35124 17.2798 2.92649 16.9287 3.28516L12.1338 8.18164H19.0908C19.5929 8.18164 20 8.58878 20 9.09082C20 9.5929 19.5929 10 19.0908 10H12.1943L17.0576 14.8633C17.4126 15.2183 17.4126 15.7934 17.0576 16.1484C16.7026 16.5034 16.1275 16.5034 15.7725 16.1484L10.9092 11.2852V19.0908C10.9092 19.5929 10.5021 20 10 20C9.49796 20 9.09082 19.5929 9.09082 19.0908V11.2891L4.20801 16.2764C3.85674 16.6351 3.2806 16.6413 2.92188 16.29C2.56314 15.9388 2.55791 15.3626 2.90918 15.0039L7.80859 10H0.90918C0.407103 10 0 9.5929 0 9.09082C4.79614e-05 8.58878 0.407132 8.18164 0.90918 8.18164H7.80566L2.91602 3.29199C2.56101 2.93698 2.56104 2.36186 2.91602 2.00684C3.27104 1.65181 3.84615 1.65181 4.20117 2.00684L9.09082 6.89648V0.90918C9.09082 0.407128 9.49796 4.01669e-05 10 0Z" fill="#5B3A1B"/>
</svg>
