<svg width="23" height="30" viewBox="0 0 23 30" fill="none" xmlns="http://www.w3.org/2000/svg">
<path d="M12.1221 21.4863L13.2832 26.9043L12.1934 28.2227L11.0391 21.1162L10.0479 21.1455L9.30566 28.3809L7.5498 27.4062L10.1875 18.3184L12.1221 21.4863ZM2.3584 26.4951L2.43066 26.752L2.68457 26.835L2.85059 26.8887L2.7002 26.9316L2.44238 27.0039L2.36035 27.2578L2.30566 27.4238L2.26367 27.2734L2.19141 27.0156L1.93652 26.9336L1.76953 26.8789L1.92188 26.8369L2.17871 26.7646L2.26172 26.5098L2.31543 26.3428L2.3584 26.4951ZM4.58887 16.084L7.55273 20.0244L6.84766 22.7305L3.52637 18.3594L2.66797 18.8555L5.30078 25.1201L4.5625 25.0635L0.751953 18.8027L0.537109 14.5166L4.58887 16.084ZM19.8105 14.5732L19.0908 18.6162L18.5459 19.2441L19.1445 16.7949L18.2637 16.3701L16.6895 18.4023L16.6318 18.4775L16.6055 18.5674L15.8506 21.125L16.5771 21.5146L14.9814 23.3555L14.541 23.2998L14.0791 20.9297L14.0645 20.8564L14.0293 20.79L13.3105 19.4443L18.5713 14.1826L19.8105 14.5732ZM15.4541 7.9668L14.6572 8.07715L13.3467 8.25586L12.7627 5.9834L11.7832 6.0332L11.4307 8.36133L8.97363 8.66113L8.86523 9.62793L11.3301 10.5107L10.9814 15.8809L11.3281 15.9023L11.9277 16.1367L11.9736 16.0459L11.9756 15.9961L13.6211 10.2725L15.0654 8.93945L15.7236 8.33008L15.7471 8.3623L15.6289 10.2627L15.3848 10.332L15.6201 10.4082L15.3604 14.6035L12.2354 17.8154L10.2217 14.75L9.65527 13.8887L9.33008 14.8662L8.35059 17.7998L6.64941 15.5205L7.96387 9.04492L12.2959 3.7002L15.4541 7.9668ZM5.70117 10.0449L5.13281 13.3125L4.17578 11.7939L4.59277 7.8291L5.70117 10.0449ZM20.1553 9.88867L20.2275 10.1465L20.4824 10.2285L21.1045 10.4307L20.4971 10.6016L20.2393 10.6738L20.1562 10.9287L19.9531 11.5508L19.7832 10.9434L19.7109 10.6855L19.4561 10.6025L18.834 10.4004L19.4424 10.2295L19.6992 10.1572L19.7822 9.90234L19.9834 9.28027L20.1553 9.88867ZM6.9668 2.88379L7.03906 3.1416L7.29395 3.22363L8.46582 3.60449L7.30664 3.93066L7.04883 4.00293L6.9668 4.25684L6.58496 5.42969L6.25977 4.27051L6.1875 4.0127L5.93262 3.92969L4.76074 3.54883L5.91992 3.22363L6.17773 3.15137L6.26074 2.89648L6.64062 1.72363L6.9668 2.88379Z" stroke="#5B3A1B"/>
</svg>
