<svg width="29" height="29" viewBox="0 0 29 29" fill="none" xmlns="http://www.w3.org/2000/svg">
<path d="M26.6 27.6667C26.9734 27.6667 27.1601 27.6667 27.3027 27.594C27.4281 27.5301 27.5301 27.4281 27.594 27.3027C27.6667 27.1601 27.6667 26.9734 27.6667 26.6V12.7333C27.6667 12.36 27.6667 12.1733 27.594 12.0307C27.5301 11.9052 27.4281 11.8032 27.3027 11.7393C27.1601 11.6667 26.9734 11.6667 26.6 11.6667L23.4 11.6667C23.0266 11.6667 22.8399 11.6667 22.6973 11.7393C22.5719 11.8032 22.4699 11.9052 22.406 12.0307C22.3333 12.1733 22.3333 12.36 22.3333 12.7333V15.9333C22.3333 16.3067 22.3333 16.4934 22.2607 16.636C22.1968 16.7614 22.0948 16.8634 21.9693 16.9273C21.8267 17 21.64 17 21.2667 17H18.0667C17.6933 17 17.5066 17 17.364 17.0727C17.2386 17.1366 17.1366 17.2386 17.0727 17.364C17 17.5066 17 17.6933 17 18.0667V21.2667C17 21.64 17 21.8267 16.9273 21.9693C16.8634 22.0948 16.7614 22.1968 16.636 22.2607C16.4934 22.3333 16.3067 22.3333 15.9333 22.3333H12.7333C12.36 22.3333 12.1733 22.3333 12.0307 22.406C11.9052 22.4699 11.8032 22.5719 11.7393 22.6973C11.6667 22.8399 11.6667 23.0266 11.6667 23.4V26.6C11.6667 26.9734 11.6667 27.16 11.7393 27.3027C11.8032 27.4281 11.9052 27.5301 12.0307 27.594C12.1733 27.6667 12.36 27.6667 12.7333 27.6667L26.6 27.6667Z" stroke="#5B3A1B" stroke-width="2" stroke-linecap="round" stroke-linejoin="round"/>
<path d="M11.6667 7.4C11.6667 7.02663 11.6667 6.83995 11.7393 6.69734C11.8032 6.5719 11.9052 6.46991 12.0307 6.406C12.1733 6.33333 12.36 6.33333 12.7333 6.33333H15.9333C16.3067 6.33333 16.4934 6.33333 16.636 6.406C16.7614 6.46991 16.8634 6.5719 16.9273 6.69734C17 6.83995 17 7.02663 17 7.4V10.6C17 10.9734 17 11.1601 16.9273 11.3027C16.8634 11.4281 16.7614 11.5301 16.636 11.594C16.4934 11.6667 16.3067 11.6667 15.9333 11.6667H12.7333C12.36 11.6667 12.1733 11.6667 12.0307 11.594C11.9052 11.5301 11.8032 11.4281 11.7393 11.3027C11.6667 11.1601 11.6667 10.9734 11.6667 10.6V7.4Z" stroke="#5B3A1B" stroke-width="2" stroke-linecap="round" stroke-linejoin="round"/>
<path d="M2.33333 15.4C2.33333 15.0266 2.33333 14.8399 2.406 14.6973C2.46991 14.5719 2.5719 14.4699 2.69734 14.406C2.83995 14.3333 3.02663 14.3333 3.4 14.3333H6.6C6.97337 14.3333 7.16005 14.3333 7.30266 14.406C7.4281 14.4699 7.53009 14.5719 7.594 14.6973C7.66667 14.8399 7.66667 15.0266 7.66667 15.4V18.6C7.66667 18.9734 7.66667 19.1601 7.594 19.3027C7.53009 19.4281 7.4281 19.5301 7.30266 19.594C7.16005 19.6667 6.97337 19.6667 6.6 19.6667H3.4C3.02663 19.6667 2.83995 19.6667 2.69734 19.594C2.5719 19.5301 2.46991 19.4281 2.406 19.3027C2.33333 19.1601 2.33333 18.9734 2.33333 18.6V15.4Z" stroke="#5B3A1B" stroke-width="2" stroke-linecap="round" stroke-linejoin="round"/>
<path d="M1 2.06667C1 1.6933 1 1.50661 1.07266 1.36401C1.13658 1.23856 1.23856 1.13658 1.36401 1.07266C1.50661 1 1.6933 1 2.06667 1H5.26667C5.64003 1 5.82672 1 5.96933 1.07266C6.09477 1.13658 6.19676 1.23856 6.26067 1.36401C6.33333 1.50661 6.33333 1.6933 6.33333 2.06667V5.26667C6.33333 5.64003 6.33333 5.82672 6.26067 5.96933C6.19676 6.09477 6.09477 6.19676 5.96933 6.26067C5.82672 6.33333 5.64003 6.33333 5.26667 6.33333H2.06667C1.6933 6.33333 1.50661 6.33333 1.36401 6.26067C1.23856 6.19676 1.13658 6.09477 1.07266 5.96933C1 5.82672 1 5.64003 1 5.26667V2.06667Z" stroke="#5B3A1B" stroke-width="2" stroke-linecap="round" stroke-linejoin="round"/>
</svg>
