<svg width="45" height="45" viewBox="0 0 45 45" fill="none" xmlns="http://www.w3.org/2000/svg">
<rect width="45" height="45" rx="6" fill="#FAFAFA"/>
<path d="M32.7099 19.7099C33.9599 18.4599 33.3899 16.9999 32.7099 16.2899L29.7099 13.2899C28.4499 12.0399 26.9999 12.6099 26.2899 13.2899L24.5899 14.9999H21.9999C20.0999 14.9999 18.9999 15.9999 18.4399 17.1499L13.9999 21.5899V25.5899L13.2899 26.2899C12.0399 27.5499 12.6099 28.9999 13.2899 29.7099L16.2899 32.7099C16.8299 33.2499 17.4099 33.4499 17.9599 33.4499C18.6699 33.4499 19.3199 33.0999 19.7099 32.7099L22.4099 29.9999H25.9999C27.6999 29.9999 28.5599 28.9399 28.8699 27.8999C29.9999 27.5999 30.6199 26.7399 30.8699 25.8999C32.4199 25.4999 32.9999 24.0299 32.9999 22.9999V19.9999H32.4099L32.7099 19.7099ZM30.9999 22.9999C30.9999 23.4499 30.8099 23.9999 29.9999 23.9999H28.9999V24.9999C28.9999 25.4499 28.8099 25.9999 27.9999 25.9999H26.9999V26.9999C26.9999 27.4499 26.8099 27.9999 25.9999 27.9999H21.5899L18.3099 31.2799C17.9999 31.5699 17.8199 31.3999 17.7099 31.2899L14.7199 28.3099C14.4299 27.9999 14.5999 27.8199 14.7099 27.7099L15.9999 26.4099V22.4099L17.9999 20.4099V21.9999C17.9999 23.2099 18.7999 24.9999 20.9999 24.9999C23.1999 24.9999 23.9999 23.2099 23.9999 21.9999H30.9999V22.9999ZM31.2899 18.2899L29.5899 19.9999H21.9999V21.9999C21.9999 22.4499 21.8099 22.9999 20.9999 22.9999C20.1899 22.9999 19.9999 22.4499 19.9999 21.9999V18.9999C19.9999 18.5399 20.1699 16.9999 21.9999 16.9999H25.4099L27.6899 14.7199C27.9999 14.4299 28.1799 14.5999 28.2899 14.7099L31.2799 17.6899C31.5699 17.9999 31.3999 18.1799 31.2899 18.2899Z" fill="#5B3A1B"/>
</svg>
