<svg width="45" height="45" viewBox="0 0 45 45" fill="none" xmlns="http://www.w3.org/2000/svg">
<rect width="45" height="45" rx="6" fill="#FAFAFA"/>
<path d="M22.9999 14C21.7299 14 20.5999 14.8 20.1799 16H13.9999V18H15.9499L12.9999 25C12.5299 27 13.9999 28 16.4999 28C18.9999 28 20.5599 27 19.9999 25L17.0499 18H20.1699C20.4999 18.85 21.1499 19.5 21.9999 19.83V31H12.9999V33H32.9999V31H23.9999V19.82C24.8499 19.5 25.4999 18.85 25.8199 18H28.9499L25.9999 25C25.5299 27 26.9999 28 29.4999 28C31.9999 28 33.5599 27 32.9999 25L30.0499 18H31.9999V16H25.8299C25.3999 14.8 24.2699 14 22.9999 14ZM22.9999 16C23.2651 16 23.5195 16.1054 23.707 16.2929C23.8946 16.4804 23.9999 16.7348 23.9999 17C23.9999 17.2652 23.8946 17.5196 23.707 17.7071C23.5195 17.8946 23.2651 18 22.9999 18C22.7347 18 22.4804 17.8946 22.2928 17.7071C22.1053 17.5196 21.9999 17.2652 21.9999 17C21.9999 16.7348 22.1053 16.4804 22.2928 16.2929C22.4804 16.1054 22.7347 16 22.9999 16ZM16.4999 21.25L17.9999 25H14.9999L16.4999 21.25ZM29.4999 21.25L30.9999 25H27.9999L29.4999 21.25Z" fill="#5B3A1B"/>
</svg>
