<svg width="45" height="45" viewBox="0 0 45 45" fill="none" xmlns="http://www.w3.org/2000/svg">
<rect width="45" height="45" rx="6" fill="#FAFAFA"/>
<path d="M23.7499 27.5001C25.0849 27.5001 26.39 27.1042 27.5 26.3625C28.61 25.6208 29.4752 24.5666 29.9861 23.3332C30.497 22.0998 30.6307 20.7426 30.3702 19.4332C30.1098 18.1238 29.4669 16.9211 28.5229 15.9771C27.5789 15.0331 26.3761 14.3902 25.0668 14.1298C23.7574 13.8693 22.4002 14.003 21.1668 14.5139C19.9334 15.0248 18.8792 15.8899 18.1375 17C17.3958 18.11 16.9999 19.4151 16.9999 20.7501C17.0019 22.5397 17.7137 24.2554 18.9791 25.5209C20.2446 26.7863 21.9603 27.4981 23.7499 27.5001ZM23.7499 16.2501C24.6399 16.2501 25.51 16.514 26.25 17.0085C26.99 17.5029 27.5668 18.2057 27.9074 19.028C28.248 19.8503 28.3371 20.7551 28.1634 21.628C27.9898 22.5009 27.5612 23.3027 26.9319 23.9321C26.3026 24.5614 25.5007 24.99 24.6278 25.1636C23.7549 25.3372 22.8501 25.2481 22.0278 24.9075C21.2056 24.5669 20.5028 23.9902 20.0083 23.2501C19.5138 22.5101 19.2499 21.6401 19.2499 20.7501C19.2511 19.557 19.7257 18.4131 20.5693 17.5695C21.4129 16.7258 22.5568 16.2513 23.7499 16.2501ZM24.8749 31.1891V32.3751H26.7499C27.0483 32.3751 27.3344 32.4936 27.5454 32.7046C27.7564 32.9156 27.8749 33.2017 27.8749 33.5001C27.8749 33.7984 27.7564 34.0846 27.5454 34.2956C27.3344 34.5065 27.0483 34.6251 26.7499 34.6251H20.7499C20.4515 34.6251 20.1654 34.5065 19.9544 34.2956C19.7434 34.0846 19.6249 33.7984 19.6249 33.5001C19.6249 33.2017 19.7434 32.9156 19.9544 32.7046C20.1654 32.4936 20.4515 32.3751 20.7499 32.3751H22.6249V31.1901C20.6888 30.9815 18.8488 30.2386 17.3107 29.0445C15.7725 27.8504 14.5967 26.252 13.9146 24.4281C13.2326 22.6041 13.0712 20.6264 13.4485 18.716C13.8258 16.8056 14.7269 15.0378 16.0512 13.6101C16.1507 13.4982 16.2715 13.4074 16.4066 13.3428C16.5417 13.2783 16.6883 13.2414 16.8378 13.2342C16.9873 13.227 17.1368 13.2498 17.2774 13.3011C17.4181 13.3525 17.547 13.4314 17.6568 13.5332C17.7665 13.635 17.8548 13.7577 17.9166 13.8941C17.9783 14.0305 18.0122 14.1779 18.0162 14.3275C18.0202 14.4772 17.9944 14.6261 17.9401 14.7656C17.8859 14.9052 17.8043 15.0325 17.7002 15.1401C16.2448 16.7043 15.4531 18.7722 15.4916 20.9084C15.5301 23.0446 16.3958 25.0826 17.9066 26.5934C19.4174 28.1042 21.4554 28.9699 23.5916 29.0084C25.7278 29.0469 27.7957 28.2551 29.3599 26.7998C29.4675 26.6957 29.5948 26.6141 29.7343 26.5599C29.8739 26.5056 30.0228 26.4797 30.1725 26.4838C30.3221 26.4878 30.4695 26.5217 30.6059 26.5834C30.7423 26.6451 30.865 26.7335 30.9668 26.8432C31.0686 26.9529 31.1475 27.0819 31.1988 27.2225C31.2502 27.3632 31.2729 27.5126 31.2658 27.6622C31.2586 27.8117 31.2217 27.9583 31.1571 28.0934C31.0926 28.2285 31.0018 28.3493 30.8899 28.4488C29.2341 29.9888 27.1235 30.9503 24.8749 31.1891Z" fill="#5B3A1B"/>
</svg>
